<svg width="48" height="48" viewBox="0 0 48 48" fill="none" xmlns="http://www.w3.org/2000/svg">
<rect width="48" height="48" rx="15" fill="#FF5331"/>
<circle cx="24" cy="24" r="16" fill="white"/>
<path d="M19.6114 21.0068C22.4991 21.0068 25.3081 21.0068 28.179 21.0068C27.8894 20.6532 27.636 20.3413 27.38 20.0319C26.6242 19.1177 25.8581 18.2113 25.1191 17.2837C24.9773 17.1054 24.8786 16.8477 24.8702 16.6227C24.8592 16.3434 25.0488 16.1286 25.3397 16.0429C25.6685 15.9458 25.9323 16.0589 26.1399 16.3108C26.7306 17.0287 27.3168 17.7504 27.9056 18.4702C28.5414 19.2482 29.1714 20.0306 29.8214 20.7964C29.9214 20.9147 30.1123 20.9946 30.2715 21.0176C30.5346 21.056 30.8087 21.0183 31.0757 21.0394C31.8501 21.1001 32.3776 21.7905 32.228 22.5423C31.7012 25.1824 31.173 27.8219 30.6436 30.462C30.4482 31.435 29.7692 31.9956 28.7606 31.9969C25.5802 32.0014 22.3991 32.0007 19.2187 31.9969C18.2346 31.9956 17.5479 31.4267 17.3576 30.4754C16.8308 27.8462 16.3052 25.2169 15.779 22.587C15.6133 21.7649 16.175 21.0253 17.0197 21.0694C17.6169 21.1007 17.9664 20.8859 18.3191 20.4314C19.3664 19.0813 20.4665 17.7708 21.5473 16.4457C21.6079 16.3715 21.6691 16.2961 21.7381 16.2296C22.0348 15.9432 22.4391 15.9234 22.7228 16.1778C23.0053 16.4309 23.0446 16.8036 22.7886 17.1252C22.2624 17.7855 21.7214 18.4337 21.1861 19.0864C20.6735 19.7123 20.1602 20.3381 19.6114 21.0068ZM24.7038 26.6041C24.7038 26.381 24.7038 26.1579 24.7038 25.9348C24.7038 25.7117 24.7084 25.4886 24.7038 25.2655C24.6942 24.7982 24.4053 24.4862 23.9906 24.4907C23.5805 24.4952 23.2961 24.8123 23.2942 25.2815C23.2903 26.1637 23.291 27.0458 23.2948 27.928C23.2968 28.3883 23.5992 28.7143 24.0061 28.7079C24.4014 28.7021 24.6955 28.387 24.7032 27.9433C24.7109 27.4971 24.7051 27.0503 24.7038 26.6041ZM27.4819 26.6188C27.4819 26.1828 27.4838 25.7475 27.4812 25.3115C27.478 24.8129 27.2039 24.492 26.7835 24.4907C26.3585 24.4894 26.0729 24.8071 26.0709 25.2987C26.0677 26.17 26.069 27.042 26.0722 27.9133C26.0742 28.3806 26.3618 28.7034 26.7693 28.7079C27.1756 28.7124 27.4748 28.3889 27.4806 27.9261C27.4857 27.4908 27.4819 27.0548 27.4819 26.6188ZM20.5026 26.5856C20.5026 27.0318 20.4987 27.4786 20.5039 27.9248C20.509 28.3947 20.7986 28.713 21.2068 28.7085C21.6014 28.7047 21.8948 28.3966 21.8994 27.9453C21.9084 27.042 21.909 26.1387 21.8987 25.2354C21.8935 24.7777 21.6034 24.4862 21.1958 24.4894C20.7902 24.492 20.5123 24.7899 20.5045 25.247C20.4968 25.6925 20.5026 26.1394 20.5026 26.5856Z" fill="#FF5331"/>
</svg>
